<svg width="512" height="512" xmlns="http://www.w3.org/2000/svg">

 <g>
  <title>background</title>
  <rect fill="none" id="canvas_background" height="402" width="582" y="-1" x="-1"/>
 </g>
 <g>
  <title>Layer 1</title>
  <g id="svg_1">
   <path fill="#ffffff" id="svg_2" d="m437.022,74.984c-48.352,-48.354 -112.641,-74.984 -181.022,-74.984c-68.376,0 -132.662,26.63 -181.016,74.984s-74.984,112.64 -74.984,181.016c0,68.388 26.63,132.678 74.984,181.028c48.351,48.347 112.637,74.972 181.016,74.972c68.385,0 132.673,-26.625 181.021,-74.972c48.351,-48.349 74.979,-112.639 74.979,-181.028c0,-68.378 -26.628,-132.664 -74.978,-181.016zm-11.314,350.73c-45.327,45.325 -105.597,70.286 -169.708,70.286c-64.106,0 -124.374,-24.961 -169.703,-70.286c-45.332,-45.328 -70.297,-105.601 -70.297,-169.714c0,-64.102 24.965,-124.37 70.297,-169.702c45.333,-45.333 105.601,-70.298 169.703,-70.298c64.108,0 124.378,24.965 169.708,70.297c45.329,45.331 70.292,105.599 70.292,169.703c0,64.115 -24.963,124.387 -70.292,169.714z"/>
   <path fill="#ffffff" id="svg_3" d="m430.038,114.969c-2.784,-3.432 -7.821,-3.956 -11.253,-1.172c-3.431,2.784 -3.956,7.822 -1.172,11.252c29.913,36.87 46.387,83.376 46.387,130.951c0,55.567 -21.635,107.803 -60.919,147.085c-39.284,39.282 -91.518,60.915 -147.081,60.915c-51.26,0 -100.505,-18.807 -138.663,-52.956c-3.292,-2.946 -8.35,-2.666 -11.296,0.626c-2.946,3.292 -2.666,8.35 0.626,11.296c41.096,36.779 94.13,57.034 149.333,57.034c59.837,0 116.089,-23.297 158.394,-65.601c42.307,-42.305 65.606,-98.559 65.606,-158.399c0,-51.234 -17.744,-101.319 -49.962,-141.031z"/>
   <path fill="#ffffff" id="svg_4" d="m48,256c0,-114.691 93.309,-208 208,-208c51.26,0 100.504,18.808 138.662,52.959c3.293,2.948 8.351,2.666 11.296,-0.625c2.947,-3.292 2.667,-8.35 -0.625,-11.296c-41.096,-36.782 -94.13,-57.038 -149.333,-57.038c-59.829,0 -116.079,23.301 -158.389,65.611c-42.31,42.309 -65.611,98.56 -65.611,158.389c0,51.24 17.744,101.328 49.963,141.038c1.581,1.949 3.889,2.96 6.217,2.96c1.771,0 3.553,-0.585 5.036,-1.788c3.431,-2.784 3.956,-7.822 1.172,-11.253c-29.914,-36.869 -46.388,-83.377 -46.388,-130.957z"/>
   <path fill="#ffffff" id="svg_5" d="m168,127.654c-22.056,0 -40,17.944 -40,40l0,176c0,22.056 17.944,40 40,40l176,0c22.056,0 40,-17.944 40,-40l0,-176c0,-22.056 -17.944,-40 -40,-40l-176,0zm176,240l-176,0c-13.234,0 -24,-10.766 -24,-24l0,-120l47.528,0c-4.808,9.647 -7.528,20.509 -7.528,32c0,39.701 32.299,72 72,72s72,-32.299 72,-72c0,-11.491 -2.72,-22.353 -7.528,-32l47.528,0l0,120c0,13.234 -10.766,24 -24,24zm-32,-112c0,30.878 -25.122,56 -56,56s-56,-25.122 -56,-56s25.122,-56 56,-56s56,25.122 56,56zm56,-88l0,40l-58.392,0c-13.192,-14.718 -32.333,-24 -53.608,-24s-40.416,9.282 -53.608,24l-58.392,0l0,-40c0,-10.429 6.689,-19.322 16,-22.624l0,46.624c0,4.418 3.582,8 8,8s8,-3.582 8,-8l0,-48l8,0l0,48c0,4.418 3.582,8 8,8s8,-3.582 8,-8l0,-48l144,0c13.234,0 24,10.766 24,24z"/>
   <path fill="#ffffff" id="svg_6" d="m256,215.654c-4.418,0 -8,3.582 -8,8s3.582,8 8,8c13.234,0 24,10.766 24,24c0,4.418 3.582,8 8,8s8,-3.582 8,-8c0,-22.056 -17.944,-40 -40,-40z"/>
   <path fill="#ffffff" id="svg_7" d="m312,159.654l0,32c0,4.418 3.582,8 8,8l32,0c4.418,0 8,-3.582 8,-8l0,-32c0,-4.418 -3.582,-8 -8,-8l-32,0c-4.418,0 -8,3.582 -8,8zm16,8l16,0l0,16l-16,0l0,-16z"/>
  </g>
  <g id="svg_8"/>
  <g id="svg_9"/>
  <g id="svg_10"/>
  <g id="svg_11"/>
  <g id="svg_12"/>
  <g id="svg_13"/>
  <g id="svg_14"/>
  <g id="svg_15"/>
  <g id="svg_16"/>
  <g id="svg_17"/>
  <g id="svg_18"/>
  <g id="svg_19"/>
  <g id="svg_20"/>
  <g id="svg_21"/>
  <g id="svg_22"/>
 </g>
</svg>