<svg width="512" height="512" xmlns="http://www.w3.org/2000/svg">

 <g>
  <title>background</title>
  <rect fill="none" id="canvas_background" height="402" width="582" y="-1" x="-1"/>
 </g>
 <g>
  <title>Layer 1</title>
  <g id="svg_1">
   <g id="svg_2">
    <path fill="#ffffff" id="svg_3" d="m437.019,74.981c-48.352,-48.353 -112.64,-74.981 -181.019,-74.981s-132.667,26.628 -181.019,74.981c-48.353,48.352 -74.981,112.64 -74.981,181.019s26.628,132.667 74.981,181.019c48.352,48.353 112.64,74.981 181.019,74.981s132.667,-26.628 181.019,-74.981s74.981,-112.64 74.981,-181.019s-26.628,-132.667 -74.981,-181.019zm-181.019,420.851c-132.244,0 -239.832,-107.588 -239.832,-239.832s107.588,-239.832 239.832,-239.832s239.832,107.588 239.832,239.832s-107.588,239.832 -239.832,239.832z"/>
   </g>
  </g>
  <g id="svg_4">
   <g id="svg_5">
    <path fill="#ffffff" id="svg_6" d="m400.989,98.637c-2.482,-1.87 -5.817,-2.15 -8.577,-0.722l-312.59,161.684c-2.702,1.397 -4.391,4.194 -4.371,7.236c0.02,3.042 1.747,5.815 4.469,7.176l81.764,40.88l0,81.006c0,2.12 0.721,4.218 2.18,5.757c1.614,1.703 3.759,2.557 5.905,2.557c1.352,0 2.704,-0.338 3.927,-1.018l93.544,-51.969l71.597,30.684c1.523,0.653 3.209,0.923 4.839,0.619c3.355,-0.627 5.849,-3.197 6.485,-6.372l18.115,-90.577c1,-5.003 -2.826,-9.67 -7.928,-9.67c-3.854,-0.002 -7.171,2.718 -7.927,6.496l-16.162,80.808l-66.295,-28.412c-2.297,-0.985 -4.923,-0.85 -7.111,0.363l-85,47.223l0,-72.492c0,-3.062 -1.73,-5.86 -4.469,-7.231l-72.015,-36.007l283.53,-146.654l-24.605,123.023c-1,5.003 2.826,9.67 7.928,9.67c3.853,0 7.171,-2.721 7.928,-6.499l27.903,-139.517c0.609,-3.046 -0.582,-6.173 -3.064,-8.042z"/>
   </g>
  </g>
  <g id="svg_7">
   <g id="svg_8">
    <path fill="#ffffff" id="svg_9" d="m348.576,164.757c-2.541,-3.216 -7.089,-4.024 -10.581,-1.873l-140.126,86.232c-2.391,1.471 -3.847,4.078 -3.847,6.885l0,86.232c-0.001,3.75 2.577,7.006 6.225,7.868c0.621,0.147 1.244,0.218 1.86,0.218c3.007,0 5.837,-1.686 7.228,-4.47l31.75,-63.5l106.863,-106.863c2.899,-2.9 3.169,-7.511 0.628,-10.729zm-119.851,107.085c-0.613,0.614 -1.125,1.324 -1.513,2.101l-17.022,34.043l0,-47.468l77.636,-47.777l-59.101,59.101z"/>
   </g>
  </g>
  <g id="svg_10"/>
  <g id="svg_11"/>
  <g id="svg_12"/>
  <g id="svg_13"/>
  <g id="svg_14"/>
  <g id="svg_15"/>
  <g id="svg_16"/>
  <g id="svg_17"/>
  <g id="svg_18"/>
  <g id="svg_19"/>
  <g id="svg_20"/>
  <g id="svg_21"/>
  <g id="svg_22"/>
  <g id="svg_23"/>
  <g id="svg_24"/>
 </g>
</svg>